<svg width="247" height="42" viewBox="0 0 247 42" fill="none" xmlns="http://www.w3.org/2000/svg">
<path d="M37.2119 39.1896C37.8682 39.0255 38.4697 38.8204 39.0166 38.5743C39.568 38.3282 40.0443 38.0389 40.4453 37.7062C40.8464 37.3689 41.1585 36.9861 41.3818 36.5577C41.6051 36.1294 41.7168 35.6531 41.7168 35.129C41.7168 34.6095 41.612 34.1674 41.4023 33.8029C41.1927 33.4383 40.9056 33.1398 40.541 32.9073C40.181 32.6749 39.7549 32.504 39.2627 32.3947C38.7751 32.2853 38.2533 32.226 37.6973 32.2169L38.5791 28.1974H39.8848C40.2721 28.1974 40.6094 28.1974 40.8965 28.1974C41.1882 28.1928 41.4388 28.1906 41.6484 28.1906C41.8581 28.186 42.0335 28.1814 42.1748 28.1769C42.3161 28.1723 42.4346 28.1655 42.5303 28.1564H42.5576V29.6398H42.5303C42.4346 29.6124 42.3161 29.5874 42.1748 29.5646C42.0335 29.5418 41.8581 29.5213 41.6484 29.5031C41.4388 29.4848 41.1882 29.4712 40.8965 29.462C40.6094 29.4529 40.2721 29.4484 39.8848 29.4484H38.873L38.5107 30.9865C38.8799 30.9956 39.2445 31.032 39.6045 31.0958C39.9645 31.1551 40.3086 31.2485 40.6367 31.3761C40.9648 31.4991 41.2679 31.6564 41.5459 31.8478C41.8285 32.0346 42.0723 32.2579 42.2773 32.5177C42.4824 32.7729 42.6419 33.0669 42.7559 33.3995C42.8743 33.7277 42.9336 34.0945 42.9336 34.5001C42.9336 35.0242 42.8538 35.4982 42.6943 35.922C42.5348 36.3458 42.3184 36.7286 42.0449 37.0704C41.7715 37.4122 41.4525 37.7153 41.0879 37.9796C40.7233 38.2439 40.3337 38.4764 39.9189 38.6769C39.5088 38.8774 39.085 39.0506 38.6475 39.1964C38.21 39.3422 37.7816 39.4653 37.3623 39.5656L37.2119 39.1896ZM44.2188 37.3986C44.2188 37.2983 44.237 37.2049 44.2734 37.1183C44.3145 37.0271 44.3669 36.9497 44.4307 36.8859C44.499 36.8175 44.5765 36.7651 44.6631 36.7286C44.7542 36.6876 44.8499 36.6671 44.9502 36.6671C45.055 36.6671 45.1507 36.6876 45.2373 36.7286C45.3285 36.7651 45.4059 36.8175 45.4697 36.8859C45.5381 36.9497 45.5905 37.0271 45.627 37.1183C45.668 37.2049 45.6885 37.2983 45.6885 37.3986C45.6885 37.6082 45.6178 37.7837 45.4766 37.9249C45.3353 38.0662 45.1598 38.1368 44.9502 38.1368C44.8499 38.1368 44.7542 38.1163 44.6631 38.0753C44.5765 38.0389 44.499 37.9887 44.4307 37.9249C44.3669 37.8566 44.3145 37.7791 44.2734 37.6925C44.237 37.6014 44.2188 37.5034 44.2188 37.3986ZM48.0195 33.1534C48.0195 33.5271 48.0674 33.8872 48.1631 34.2335C48.2588 34.5799 48.391 34.9057 48.5596 35.2111C48.7327 35.5118 48.9401 35.7876 49.1816 36.0382C49.4277 36.2889 49.6989 36.5031 49.9951 36.6808C50.2959 36.8585 50.6172 36.9975 50.959 37.0978C51.3008 37.1935 51.6585 37.2413 52.0322 37.2413C52.4059 37.2413 52.7637 37.1935 53.1055 37.0978C53.4518 36.9975 53.7731 36.8585 54.0693 36.6808C54.3701 36.5031 54.6413 36.2889 54.8828 36.0382C55.1243 35.7876 55.3317 35.5118 55.5049 35.2111C55.6781 34.9057 55.8125 34.5799 55.9082 34.2335C56.0039 33.8872 56.0518 33.5271 56.0518 33.1534C56.0518 32.5929 55.9469 32.0665 55.7373 31.5743C55.5277 31.0776 55.2406 30.6447 54.876 30.2755C54.516 29.9018 54.0921 29.6079 53.6045 29.3937C53.1169 29.1749 52.5928 29.0656 52.0322 29.0656C51.4717 29.0656 50.9476 29.1749 50.46 29.3937C49.9723 29.6079 49.5462 29.9018 49.1816 30.2755C48.8216 30.6447 48.5368 31.0776 48.3271 31.5743C48.1221 32.0665 48.0195 32.5929 48.0195 33.1534ZM46.9531 33.1261C46.9531 32.6613 47.0124 32.2124 47.1309 31.7794C47.2539 31.3465 47.4248 30.9432 47.6436 30.5695C47.8669 30.1912 48.1335 29.8471 48.4434 29.5372C48.7533 29.2273 49.0951 28.963 49.4688 28.7443C49.847 28.521 50.2526 28.3501 50.6855 28.2316C51.1185 28.1085 51.5674 28.047 52.0322 28.047C52.4971 28.047 52.946 28.1085 53.3789 28.2316C53.8118 28.3501 54.2174 28.521 54.5957 28.7443C54.974 28.963 55.318 29.2273 55.6279 29.5372C55.9378 29.8471 56.2021 30.1912 56.4209 30.5695C56.6442 30.9432 56.8151 31.3465 56.9336 31.7794C57.0566 32.2124 57.1182 32.6613 57.1182 33.1261C57.1182 33.5955 57.0566 34.0467 56.9336 34.4796C56.8151 34.908 56.6442 35.3113 56.4209 35.6896C56.2021 36.0678 55.9378 36.4119 55.6279 36.7218C55.318 37.0317 54.974 37.2983 54.5957 37.5216C54.2174 37.7404 53.8118 37.909 53.3789 38.0275C52.946 38.1505 52.4971 38.212 52.0322 38.212C51.5674 38.212 51.1185 38.1505 50.6855 38.0275C50.2526 37.909 49.847 37.7404 49.4688 37.5216C49.0951 37.2983 48.7533 37.0317 48.4434 36.7218C48.1335 36.4119 47.8669 36.0678 47.6436 35.6896C47.4248 35.3113 47.2539 34.908 47.1309 34.4796C47.0124 34.0467 46.9531 33.5955 46.9531 33.1261ZM59.3125 33.1534C59.3125 33.5271 59.3604 33.8872 59.4561 34.2335C59.5518 34.5799 59.6839 34.9057 59.8525 35.2111C60.0257 35.5118 60.2331 35.7876 60.4746 36.0382C60.7207 36.2889 60.9919 36.5031 61.2881 36.6808C61.5889 36.8585 61.9102 36.9975 62.252 37.0978C62.5938 37.1935 62.9515 37.2413 63.3252 37.2413C63.6989 37.2413 64.0566 37.1935 64.3984 37.0978C64.7448 36.9975 65.0661 36.8585 65.3623 36.6808C65.6631 36.5031 65.9342 36.2889 66.1758 36.0382C66.4173 35.7876 66.6247 35.5118 66.7979 35.2111C66.971 34.9057 67.1055 34.5799 67.2012 34.2335C67.2969 33.8872 67.3447 33.5271 67.3447 33.1534C67.3447 32.5929 67.2399 32.0665 67.0303 31.5743C66.8206 31.0776 66.5335 30.6447 66.1689 30.2755C65.8089 29.9018 65.3851 29.6079 64.8975 29.3937C64.4098 29.1749 63.8857 29.0656 63.3252 29.0656C62.7646 29.0656 62.2406 29.1749 61.7529 29.3937C61.2653 29.6079 60.8392 29.9018 60.4746 30.2755C60.1146 30.6447 59.8298 31.0776 59.6201 31.5743C59.415 32.0665 59.3125 32.5929 59.3125 33.1534ZM58.2461 33.1261C58.2461 32.6613 58.3053 32.2124 58.4238 31.7794C58.5469 31.3465 58.7178 30.9432 58.9365 30.5695C59.1598 30.1912 59.4264 29.8471 59.7363 29.5372C60.0462 29.2273 60.388 28.963 60.7617 28.7443C61.14 28.521 61.5456 28.3501 61.9785 28.2316C62.4115 28.1085 62.8604 28.047 63.3252 28.047C63.79 28.047 64.2389 28.1085 64.6719 28.2316C65.1048 28.3501 65.5104 28.521 65.8887 28.7443C66.2669 28.963 66.611 29.2273 66.9209 29.5372C67.2308 29.8471 67.4951 30.1912 67.7139 30.5695C67.9372 30.9432 68.1081 31.3465 68.2266 31.7794C68.3496 32.2124 68.4111 32.6613 68.4111 33.1261C68.4111 33.5955 68.3496 34.0467 68.2266 34.4796C68.1081 34.908 67.9372 35.3113 67.7139 35.6896C67.4951 36.0678 67.2308 36.4119 66.9209 36.7218C66.611 37.0317 66.2669 37.2983 65.8887 37.5216C65.5104 37.7404 65.1048 37.909 64.6719 38.0275C64.2389 38.1505 63.79 38.212 63.3252 38.212C62.8604 38.212 62.4115 38.1505 61.9785 38.0275C61.5456 37.909 61.14 37.7404 60.7617 37.5216C60.388 37.2983 60.0462 37.0317 59.7363 36.7218C59.4264 36.4119 59.1598 36.0678 58.9365 35.6896C58.7178 35.3113 58.5469 34.908 58.4238 34.4796C58.3053 34.0467 58.2461 33.5955 58.2461 33.1261ZM70.6055 33.1534C70.6055 33.5271 70.6533 33.8872 70.749 34.2335C70.8447 34.5799 70.9769 34.9057 71.1455 35.2111C71.3187 35.5118 71.526 35.7876 71.7676 36.0382C72.0137 36.2889 72.2848 36.5031 72.5811 36.6808C72.8818 36.8585 73.2031 36.9975 73.5449 37.0978C73.8867 37.1935 74.2445 37.2413 74.6182 37.2413C74.9919 37.2413 75.3496 37.1935 75.6914 37.0978C76.0378 36.9975 76.359 36.8585 76.6553 36.6808C76.9561 36.5031 77.2272 36.2889 77.4688 36.0382C77.7103 35.7876 77.9176 35.5118 78.0908 35.2111C78.264 34.9057 78.3984 34.5799 78.4941 34.2335C78.5898 33.8872 78.6377 33.5271 78.6377 33.1534C78.6377 32.5929 78.5329 32.0665 78.3232 31.5743C78.1136 31.0776 77.8265 30.6447 77.4619 30.2755C77.1019 29.9018 76.6781 29.6079 76.1904 29.3937C75.7028 29.1749 75.1787 29.0656 74.6182 29.0656C74.0576 29.0656 73.5335 29.1749 73.0459 29.3937C72.5583 29.6079 72.1322 29.9018 71.7676 30.2755C71.4076 30.6447 71.1227 31.0776 70.9131 31.5743C70.708 32.0665 70.6055 32.5929 70.6055 33.1534ZM69.5391 33.1261C69.5391 32.6613 69.5983 32.2124 69.7168 31.7794C69.8398 31.3465 70.0107 30.9432 70.2295 30.5695C70.4528 30.1912 70.7194 29.8471 71.0293 29.5372C71.3392 29.2273 71.681 28.963 72.0547 28.7443C72.4329 28.521 72.8385 28.3501 73.2715 28.2316C73.7044 28.1085 74.1533 28.047 74.6182 28.047C75.083 28.047 75.5319 28.1085 75.9648 28.2316C76.3978 28.3501 76.8034 28.521 77.1816 28.7443C77.5599 28.963 77.904 29.2273 78.2139 29.5372C78.5238 29.8471 78.7881 30.1912 79.0068 30.5695C79.2301 30.9432 79.401 31.3465 79.5195 31.7794C79.6426 32.2124 79.7041 32.6613 79.7041 33.1261C79.7041 33.5955 79.6426 34.0467 79.5195 34.4796C79.401 34.908 79.2301 35.3113 79.0068 35.6896C78.7881 36.0678 78.5238 36.4119 78.2139 36.7218C77.904 37.0317 77.5599 37.2983 77.1816 37.5216C76.8034 37.7404 76.3978 37.909 75.9648 38.0275C75.5319 38.1505 75.083 38.212 74.6182 38.212C74.1533 38.212 73.7044 38.1505 73.2715 38.0275C72.8385 37.909 72.4329 37.7404 72.0547 37.5216C71.681 37.2983 71.3392 37.0317 71.0293 36.7218C70.7194 36.4119 70.4528 36.0678 70.2295 35.6896C70.0107 35.3113 69.8398 34.908 69.7168 34.4796C69.5983 34.0467 69.5391 33.5955 69.5391 33.1261ZM85.8268 38.0001V28.0041H88.4588C89.6814 28.0041 90.5868 28.2515 91.1748 28.7461C91.7721 29.2408 92.0708 29.9595 92.0708 30.9021C92.0708 31.5368 91.9261 32.0828 91.6368 32.5401C91.3474 32.9881 90.9181 33.3335 90.3488 33.5761C89.7888 33.8188 89.0934 33.9401 88.2628 33.9401H87.0868V38.0001H85.8268ZM84.6088 36.0961V35.1861H89.3968V36.0961H84.6088ZM84.6088 33.9401V32.8761H87.8148V33.9401H84.6088ZM88.0808 32.8761C88.6501 32.8761 89.1308 32.8155 89.5228 32.6941C89.9241 32.5728 90.2321 32.3721 90.4468 32.0921C90.6614 31.8121 90.7688 31.4295 90.7688 30.9441C90.7688 30.3095 90.5728 29.8381 90.1808 29.5301C89.7888 29.2221 89.1774 29.0681 88.3468 29.0681H87.0868V32.8761H88.0808Z" fill="black" fill-opacity="0.6"/>
<path d="M164.146 37.8634C164.215 37.7768 164.322 37.6606 164.468 37.5148C164.614 37.3644 164.782 37.1889 164.974 36.9884C165.165 36.7833 165.37 36.5555 165.589 36.3048C165.808 36.0542 166.026 35.783 166.245 35.4913C166.464 35.1997 166.674 34.8898 166.874 34.5616C167.079 34.229 167.259 33.8826 167.414 33.5226C167.569 33.1626 167.692 32.7889 167.783 32.4015C167.879 32.0141 167.927 31.6176 167.927 31.212C167.927 30.7791 167.874 30.4054 167.77 30.0909C167.669 29.7719 167.53 29.5099 167.353 29.3048C167.175 29.0952 166.965 28.9402 166.724 28.84C166.487 28.7397 166.229 28.6896 165.951 28.6896C165.605 28.6896 165.29 28.7488 165.008 28.8673C164.73 28.9812 164.486 29.1157 164.276 29.2706C164.071 29.4256 163.903 29.5805 163.771 29.7355C163.643 29.8904 163.556 30.0089 163.511 30.0909L163.415 30.0499L163.88 28.6622C164.121 28.5529 164.347 28.4594 164.557 28.382C164.771 28.2999 164.985 28.2338 165.199 28.1837C165.418 28.1336 165.641 28.0971 165.869 28.0743C166.102 28.047 166.357 28.0333 166.635 28.0333C166.822 28.0333 167.02 28.0538 167.229 28.0948C167.439 28.1359 167.646 28.2019 167.852 28.2931C168.057 28.3842 168.25 28.5027 168.433 28.6486C168.619 28.7898 168.784 28.9653 168.925 29.1749C169.071 29.38 169.185 29.6193 169.267 29.8927C169.353 30.1661 169.396 30.4783 169.396 30.8292C169.396 31.2029 169.34 31.5789 169.226 31.9572C169.112 32.3309 168.961 32.7 168.774 33.0646C168.588 33.4246 168.373 33.7778 168.132 34.1241C167.89 34.4705 167.642 34.8009 167.387 35.1154C167.132 35.4298 166.879 35.726 166.628 36.004C166.377 36.2775 166.152 36.5281 165.951 36.756H168.583C168.752 36.756 168.916 36.7537 169.075 36.7491C169.239 36.74 169.39 36.7286 169.526 36.715C169.663 36.6967 169.782 36.674 169.882 36.6466C169.987 36.6193 170.066 36.5851 170.121 36.5441H170.148V38.0001H164.146V37.8634ZM172.158 33.1534C172.158 33.5271 172.206 33.8872 172.302 34.2335C172.397 34.5799 172.53 34.9057 172.698 35.2111C172.871 35.5118 173.079 35.7876 173.32 36.0382C173.566 36.2889 173.838 36.5031 174.134 36.6808C174.435 36.8585 174.756 36.9975 175.098 37.0978C175.439 37.1935 175.797 37.2413 176.171 37.2413C176.545 37.2413 176.902 37.1935 177.244 37.0978C177.59 36.9975 177.912 36.8585 178.208 36.6808C178.509 36.5031 178.78 36.2889 179.021 36.0382C179.263 35.7876 179.47 35.5118 179.644 35.2111C179.817 34.9057 179.951 34.5799 180.047 34.2335C180.143 33.8872 180.19 33.5271 180.19 33.1534C180.19 32.5929 180.086 32.0665 179.876 31.5743C179.666 31.0776 179.379 30.6447 179.015 30.2755C178.655 29.9018 178.231 29.6079 177.743 29.3937C177.256 29.1749 176.731 29.0656 176.171 29.0656C175.61 29.0656 175.086 29.1749 174.599 29.3937C174.111 29.6079 173.685 29.9018 173.32 30.2755C172.96 30.6447 172.675 31.0776 172.466 31.5743C172.261 32.0665 172.158 32.5929 172.158 33.1534ZM171.092 33.1261C171.092 32.6613 171.151 32.2124 171.27 31.7794C171.393 31.3465 171.563 30.9432 171.782 30.5695C172.006 30.1912 172.272 29.8471 172.582 29.5372C172.892 29.2273 173.234 28.963 173.607 28.7443C173.986 28.521 174.391 28.3501 174.824 28.2316C175.257 28.1085 175.706 28.047 176.171 28.047C176.636 28.047 177.085 28.1085 177.518 28.2316C177.951 28.3501 178.356 28.521 178.734 28.7443C179.113 28.963 179.457 29.2273 179.767 29.5372C180.076 29.8471 180.341 30.1912 180.56 30.5695C180.783 30.9432 180.954 31.3465 181.072 31.7794C181.195 32.2124 181.257 32.6613 181.257 33.1261C181.257 33.5955 181.195 34.0467 181.072 34.4796C180.954 34.908 180.783 35.3113 180.56 35.6896C180.341 36.0678 180.076 36.4119 179.767 36.7218C179.457 37.0317 179.113 37.2983 178.734 37.5216C178.356 37.7404 177.951 37.909 177.518 38.0275C177.085 38.1505 176.636 38.212 176.171 38.212C175.706 38.212 175.257 38.1505 174.824 38.0275C174.391 37.909 173.986 37.7404 173.607 37.5216C173.234 37.2983 172.892 37.0317 172.582 36.7218C172.272 36.4119 172.006 36.0678 171.782 35.6896C171.563 35.3113 171.393 34.908 171.27 34.4796C171.151 34.0467 171.092 33.5955 171.092 33.1261ZM182.521 37.3986C182.521 37.2983 182.54 37.2049 182.576 37.1183C182.617 37.0271 182.67 36.9497 182.733 36.8859C182.802 36.8175 182.879 36.7651 182.966 36.7286C183.057 36.6876 183.153 36.6671 183.253 36.6671C183.358 36.6671 183.453 36.6876 183.54 36.7286C183.631 36.7651 183.709 36.8175 183.772 36.8859C183.841 36.9497 183.893 37.0271 183.93 37.1183C183.971 37.2049 183.991 37.2983 183.991 37.3986C183.991 37.6082 183.921 37.7837 183.779 37.9249C183.638 38.0662 183.463 38.1368 183.253 38.1368C183.153 38.1368 183.057 38.1163 182.966 38.0753C182.879 38.0389 182.802 37.9887 182.733 37.9249C182.67 37.8566 182.617 37.7791 182.576 37.6925C182.54 37.6014 182.521 37.5034 182.521 37.3986ZM186.322 33.1534C186.322 33.5271 186.37 33.8872 186.466 34.2335C186.562 34.5799 186.694 34.9057 186.862 35.2111C187.035 35.5118 187.243 35.7876 187.484 36.0382C187.73 36.2889 188.002 36.5031 188.298 36.6808C188.599 36.8585 188.92 36.9975 189.262 37.0978C189.604 37.1935 189.961 37.2413 190.335 37.2413C190.709 37.2413 191.066 37.1935 191.408 37.0978C191.755 36.9975 192.076 36.8585 192.372 36.6808C192.673 36.5031 192.944 36.2889 193.186 36.0382C193.427 35.7876 193.634 35.5118 193.808 35.2111C193.981 34.9057 194.115 34.5799 194.211 34.2335C194.307 33.8872 194.354 33.5271 194.354 33.1534C194.354 32.5929 194.25 32.0665 194.04 31.5743C193.83 31.0776 193.543 30.6447 193.179 30.2755C192.819 29.9018 192.395 29.6079 191.907 29.3937C191.42 29.1749 190.896 29.0656 190.335 29.0656C189.774 29.0656 189.25 29.1749 188.763 29.3937C188.275 29.6079 187.849 29.9018 187.484 30.2755C187.124 30.6447 186.84 31.0776 186.63 31.5743C186.425 32.0665 186.322 32.5929 186.322 33.1534ZM185.256 33.1261C185.256 32.6613 185.315 32.2124 185.434 31.7794C185.557 31.3465 185.728 30.9432 185.946 30.5695C186.17 30.1912 186.436 29.8471 186.746 29.5372C187.056 29.2273 187.398 28.963 187.771 28.7443C188.15 28.521 188.555 28.3501 188.988 28.2316C189.421 28.1085 189.87 28.047 190.335 28.047C190.8 28.047 191.249 28.1085 191.682 28.2316C192.115 28.3501 192.52 28.521 192.898 28.7443C193.277 28.963 193.621 29.2273 193.931 29.5372C194.241 29.8471 194.505 30.1912 194.724 30.5695C194.947 30.9432 195.118 31.3465 195.236 31.7794C195.359 32.2124 195.421 32.6613 195.421 33.1261C195.421 33.5955 195.359 34.0467 195.236 34.4796C195.118 34.908 194.947 35.3113 194.724 35.6896C194.505 36.0678 194.241 36.4119 193.931 36.7218C193.621 37.0317 193.277 37.2983 192.898 37.5216C192.52 37.7404 192.115 37.909 191.682 38.0275C191.249 38.1505 190.8 38.212 190.335 38.212C189.87 38.212 189.421 38.1505 188.988 38.0275C188.555 37.909 188.15 37.7404 187.771 37.5216C187.398 37.2983 187.056 37.0317 186.746 36.7218C186.436 36.4119 186.17 36.0678 185.946 35.6896C185.728 35.3113 185.557 34.908 185.434 34.4796C185.315 34.0467 185.256 33.5955 185.256 33.1261ZM197.615 33.1534C197.615 33.5271 197.663 33.8872 197.759 34.2335C197.854 34.5799 197.987 34.9057 198.155 35.2111C198.328 35.5118 198.536 35.7876 198.777 36.0382C199.023 36.2889 199.295 36.5031 199.591 36.6808C199.892 36.8585 200.213 36.9975 200.555 37.0978C200.896 37.1935 201.254 37.2413 201.628 37.2413C202.002 37.2413 202.359 37.1935 202.701 37.0978C203.048 36.9975 203.369 36.8585 203.665 36.6808C203.966 36.5031 204.237 36.2889 204.479 36.0382C204.72 35.7876 204.927 35.5118 205.101 35.2111C205.274 34.9057 205.408 34.5799 205.504 34.2335C205.6 33.8872 205.647 33.5271 205.647 33.1534C205.647 32.5929 205.543 32.0665 205.333 31.5743C205.123 31.0776 204.836 30.6447 204.472 30.2755C204.112 29.9018 203.688 29.6079 203.2 29.3937C202.713 29.1749 202.188 29.0656 201.628 29.0656C201.067 29.0656 200.543 29.1749 200.056 29.3937C199.568 29.6079 199.142 29.9018 198.777 30.2755C198.417 30.6447 198.132 31.0776 197.923 31.5743C197.718 32.0665 197.615 32.5929 197.615 33.1534ZM196.549 33.1261C196.549 32.6613 196.608 32.2124 196.727 31.7794C196.85 31.3465 197.021 30.9432 197.239 30.5695C197.463 30.1912 197.729 29.8471 198.039 29.5372C198.349 29.2273 198.691 28.963 199.064 28.7443C199.443 28.521 199.848 28.3501 200.281 28.2316C200.714 28.1085 201.163 28.047 201.628 28.047C202.093 28.047 202.542 28.1085 202.975 28.2316C203.408 28.3501 203.813 28.521 204.191 28.7443C204.57 28.963 204.914 29.2273 205.224 29.5372C205.534 29.8471 205.798 30.1912 206.017 30.5695C206.24 30.9432 206.411 31.3465 206.529 31.7794C206.652 32.2124 206.714 32.6613 206.714 33.1261C206.714 33.5955 206.652 34.0467 206.529 34.4796C206.411 34.908 206.24 35.3113 206.017 35.6896C205.798 36.0678 205.534 36.4119 205.224 36.7218C204.914 37.0317 204.57 37.2983 204.191 37.5216C203.813 37.7404 203.408 37.909 202.975 38.0275C202.542 38.1505 202.093 38.212 201.628 38.212C201.163 38.212 200.714 38.1505 200.281 38.0275C199.848 37.909 199.443 37.7404 199.064 37.5216C198.691 37.2983 198.349 37.0317 198.039 36.7218C197.729 36.4119 197.463 36.0678 197.239 35.6896C197.021 35.3113 196.85 34.908 196.727 34.4796C196.608 34.0467 196.549 33.5955 196.549 33.1261ZM208.908 33.1534C208.908 33.5271 208.956 33.8872 209.052 34.2335C209.147 34.5799 209.28 34.9057 209.448 35.2111C209.621 35.5118 209.829 35.7876 210.07 36.0382C210.316 36.2889 210.588 36.5031 210.884 36.6808C211.185 36.8585 211.506 36.9975 211.848 37.0978C212.189 37.1935 212.547 37.2413 212.921 37.2413C213.295 37.2413 213.652 37.1935 213.994 37.0978C214.34 36.9975 214.662 36.8585 214.958 36.6808C215.259 36.5031 215.53 36.2889 215.771 36.0382C216.013 35.7876 216.22 35.5118 216.394 35.2111C216.567 34.9057 216.701 34.5799 216.797 34.2335C216.893 33.8872 216.94 33.5271 216.94 33.1534C216.94 32.5929 216.836 32.0665 216.626 31.5743C216.416 31.0776 216.129 30.6447 215.765 30.2755C215.405 29.9018 214.981 29.6079 214.493 29.3937C214.006 29.1749 213.481 29.0656 212.921 29.0656C212.36 29.0656 211.836 29.1749 211.349 29.3937C210.861 29.6079 210.435 29.9018 210.07 30.2755C209.71 30.6447 209.425 31.0776 209.216 31.5743C209.011 32.0665 208.908 32.5929 208.908 33.1534ZM207.842 33.1261C207.842 32.6613 207.901 32.2124 208.02 31.7794C208.143 31.3465 208.313 30.9432 208.532 30.5695C208.756 30.1912 209.022 29.8471 209.332 29.5372C209.642 29.2273 209.984 28.963 210.357 28.7443C210.736 28.521 211.141 28.3501 211.574 28.2316C212.007 28.1085 212.456 28.047 212.921 28.047C213.386 28.047 213.835 28.1085 214.268 28.2316C214.701 28.3501 215.106 28.521 215.484 28.7443C215.863 28.963 216.207 29.2273 216.517 29.5372C216.826 29.8471 217.091 30.1912 217.31 30.5695C217.533 30.9432 217.704 31.3465 217.822 31.7794C217.945 32.2124 218.007 32.6613 218.007 33.1261C218.007 33.5955 217.945 34.0467 217.822 34.4796C217.704 34.908 217.533 35.3113 217.31 35.6896C217.091 36.0678 216.826 36.4119 216.517 36.7218C216.207 37.0317 215.863 37.2983 215.484 37.5216C215.106 37.7404 214.701 37.909 214.268 38.0275C213.835 38.1505 213.386 38.212 212.921 38.212C212.456 38.212 212.007 38.1505 211.574 38.0275C211.141 37.909 210.736 37.7404 210.357 37.5216C209.984 37.2983 209.642 37.0317 209.332 36.7218C209.022 36.4119 208.756 36.0678 208.532 35.6896C208.313 35.3113 208.143 34.908 208.02 34.4796C207.901 34.0467 207.842 33.5955 207.842 33.1261ZM224.129 38.0001V28.0041H226.761C227.984 28.0041 228.889 28.2515 229.477 28.7461C230.075 29.2408 230.373 29.9595 230.373 30.9021C230.373 31.5368 230.229 32.0828 229.939 32.5401C229.65 32.9881 229.221 33.3335 228.651 33.5761C228.091 33.8188 227.396 33.9401 226.565 33.9401H225.389V38.0001H224.129ZM222.911 36.0961V35.1861H227.699V36.0961H222.911ZM222.911 33.9401V32.8761H226.117V33.9401H222.911ZM226.383 32.8761C226.953 32.8761 227.433 32.8155 227.825 32.6941C228.227 32.5728 228.535 32.3721 228.749 32.0921C228.964 31.8121 229.071 31.4295 229.071 30.9441C229.071 30.3095 228.875 29.8381 228.483 29.5301C228.091 29.2221 227.48 29.0681 226.649 29.0681H225.389V32.8761H226.383Z" fill="black" fill-opacity="0.6"/>
<rect y="8.00006" width="247" height="6" rx="3" fill="#F0F0F0"/>
<rect x="43.127" y="8" width="150.291" height="6" rx="3" fill="#646464"/>
<circle cx="51" cy="10.0001" r="10" fill="#646464"/>
<circle cx="197" cy="10.0001" r="10" fill="#646464"/>
</svg>
